<svg xmlns="http://www.w3.org/2000/svg" xmlns:xlink="http://www.w3.org/1999/xlink" width="500" zoomAndPan="magnify" viewBox="0 0 375 374.999991" height="500" preserveAspectRatio="xMidYMid meet" version="1.0"><defs><g/><clipPath id="93e272cd0d"><path d="M 226 149.730469 L 342.648438 149.730469 L 342.648438 207.480469 L 226 207.480469 Z M 226 149.730469 " clip-rule="nonzero"/></clipPath><clipPath id="daeea68e39"><path d="M 121.4375 178.507812 L 144.6875 178.507812 L 144.6875 201.757812 L 121.4375 201.757812 Z M 121.4375 178.507812 " clip-rule="nonzero"/></clipPath><clipPath id="fe533a018b"><path d="M 263.039062 178.507812 L 286.289062 178.507812 L 286.289062 201.757812 L 263.039062 201.757812 Z M 263.039062 178.507812 " clip-rule="nonzero"/></clipPath><clipPath id="3fc181e785"><path d="M 81.210938 210.3125 L 98 210.3125 L 98 227.5625 L 81.210938 227.5625 Z M 81.210938 210.3125 " clip-rule="nonzero"/></clipPath></defs><g clip-path="url(#93e272cd0d)"><path fill="#231f20" d="M 290.089844 155.25 C 291.558594 153.863281 292.523438 151.953125 292.6875 149.824219 L 292.730469 149.816406 C 292.917969 152.28125 294.179688 154.425781 296.046875 155.796875 C 306.664062 157.042969 315.84375 159.566406 322.445312 162.929688 C 315.417969 160.570312 306.769531 158.929688 297.234375 158.296875 C 294.726562 159.589844 292.953125 162.121094 292.730469 165.066406 L 292.6875 165.066406 C 292.441406 161.808594 290.289062 159.085938 287.351562 158.007812 L 287.242188 158.007812 C 257.636719 158.246094 233.636719 167.898438 233.636719 179.5625 C 233.636719 184.378906 237.722656 188.777344 244.59375 192.28125 C 233.324219 188.496094 226.203125 182.847656 226.203125 176.5 C 226.203125 157.394531 275.199219 154.226562 290.089844 155.25 Z M 275.917969 192.160156 L 275.964844 192.160156 C 276.15625 194.652344 277.453125 196.828125 279.367188 198.199219 C 291.105469 198.257812 334.867188 194.34375 334.867188 176.640625 C 334.867188 171.832031 330.777344 167.425781 323.90625 163.929688 C 335.175781 167.714844 342.292969 173.351562 342.292969 179.710938 C 342.292969 198.628906 294.042969 201.871094 279.761719 201.042969 C 277.632812 202.421875 276.171875 204.742188 275.964844 207.40625 L 275.917969 207.40625 C 275.636719 203.683594 272.882812 200.671875 269.292969 199.996094 C 261.449219 198.839844 253.132812 196.878906 246.054688 193.28125 C 253.46875 195.765625 262.683594 197.449219 272.847656 198 C 274.582031 196.597656 275.742188 194.511719 275.917969 192.160156 " fill-opacity="1" fill-rule="evenodd"/></g><path stroke-linecap="butt" transform="matrix(0.75, 0, 0, 0.75, 32.108652, 166.374099)" fill="none" stroke-linejoin="miter" d="M 2.339506 49.001204 L 13.67284 49.001204 C 14.308256 49.001204 14.808256 48.501204 14.808256 47.865787 L 14.808256 27.605369 C 14.808256 26.975161 15.308256 26.464744 15.95409 26.464744 C 16.584298 26.464744 17.084298 26.975161 17.084298 27.605369 L 17.084298 47.954329 C 17.084298 48.542871 17.631173 49.001204 18.219715 49.001204 L 29.599924 49.001204 C 30.198882 49.001204 30.745757 48.542871 30.745757 47.954329 L 30.745757 27.605369 C 30.745757 26.975161 31.245757 26.464744 31.875966 26.464744 C 32.521799 26.464744 33.021799 26.975161 33.021799 27.605369 L 33.021799 47.865787 C 33.021799 48.501204 33.568674 49.001204 34.198883 49.001204 L 45.537425 49.001204 C 46.167633 49.001204 46.667633 48.501204 46.667633 47.865787 L 46.667633 13.72516 C 46.667633 13.079327 46.125967 12.579327 45.49055 12.579327 L 26.188465 12.579327 C 25.553049 12.579327 25.053049 13.126202 25.053049 13.772035 L 25.053049 20.094952 C 25.053049 20.730369 24.553049 21.230369 23.907215 21.230369 C 23.277007 21.230369 22.777007 20.730369 22.777007 20.094952 L 22.777007 13.72516 C 22.777007 13.079327 22.230132 12.579327 21.599923 12.579327 L 2.292631 12.579327 C 1.646797 12.579327 1.146797 13.079327 1.146797 13.72516 L 1.146797 47.865787 C 1.146797 48.501204 1.704089 49.001204 2.339506 49.001204 Z M 58.141593 49.001204 L 69.480135 49.001204 C 70.110343 49.001204 70.610343 48.501204 70.610343 47.865787 L 70.610343 35.57412 C 70.610343 34.928286 71.110343 34.428286 71.74576 34.428286 L 77.490552 34.428286 C 78.079094 34.428286 78.625969 33.975161 78.625969 33.38662 L 78.625969 13.902243 C 78.625969 13.126202 78.167635 12.579327 77.43326 12.579327 L 66.110343 12.579327 C 65.46451 12.579327 64.96451 13.079327 64.96451 13.683493 L 64.96451 22.782452 C 64.96451 23.506411 64.422843 23.959536 63.787426 23.959536 C 63.141593 23.959536 62.599926 23.506411 62.599926 22.782452 L 62.599926 13.683493 C 62.599926 13.079327 62.099926 12.579327 61.464509 12.579327 L 50.131175 12.579327 C 49.3968 12.579327 48.938467 13.126202 48.938467 13.902243 L 48.938467 33.38662 C 48.938467 33.975161 49.495759 34.428286 50.0843 34.428286 L 55.818676 34.428286 C 56.454092 34.428286 56.954092 34.928286 56.954092 35.57412 L 56.954092 47.865787 C 56.954092 48.501204 57.495759 49.001204 58.141593 49.001204 Z M 90.183261 49.001204 L 116.178055 49.001204 C 116.808263 49.001204 117.308263 48.454329 117.308263 47.824121 L 117.308263 37.839745 C 117.308263 37.209536 116.808263 36.709536 116.178055 36.709536 L 95.693678 36.709536 C 95.053053 36.709536 94.553053 36.209536 94.553053 35.57412 L 94.553053 26.016827 C 94.553053 25.370994 95.053053 24.870994 95.693678 24.870994 L 116.178055 24.870994 C 116.808263 24.870994 117.308263 24.329327 117.308263 23.693911 L 117.308263 13.72516 C 117.308263 13.079327 116.808263 12.579327 116.178055 12.579327 L 90.183261 12.579327 C 84.813469 12.579327 80.891594 16.495993 80.891594 21.870994 L 80.891594 39.709537 C 80.891594 45.089745 84.813469 49.001204 90.183261 49.001204 Z M 120.771805 49.001204 L 132.105139 49.001204 C 132.740556 49.001204 133.240556 48.501204 133.240556 47.865787 L 133.240556 41.485578 C 133.240556 40.85537 133.740556 40.35537 134.381181 40.35537 C 135.016598 40.35537 135.516598 40.897037 135.516598 41.532453 L 135.516598 47.865787 C 135.516598 48.501204 136.063473 49.001204 136.693681 49.001204 L 148.032223 49.001204 C 148.672848 49.001204 149.172848 48.501204 149.172848 47.865787 L 149.172848 21.870994 C 149.172848 16.495993 145.26139 12.579327 139.88639 12.579327 L 128.870764 12.579327 C 123.50618 12.579327 119.579097 16.495993 119.579097 21.870994 L 119.579097 47.865787 C 119.579097 48.501204 120.136388 49.001204 120.771805 49.001204 Z M 134.381181 29.428286 C 133.740556 29.428286 133.240556 28.928286 133.240556 28.282453 L 133.240556 24.652244 C 133.240556 24.006411 133.740556 23.506411 134.381181 23.506411 C 135.016598 23.506411 135.516598 24.006411 135.516598 24.652244 L 135.516598 28.282453 C 135.516598 28.928286 135.016598 29.428286 134.381181 29.428286 Z M 152.584307 49.001204 L 163.964516 49.001204 C 164.599933 49.001204 165.099933 48.454329 165.099933 47.824121 L 165.099933 37.162661 C 165.099933 36.532453 165.599933 36.032453 166.245766 36.032453 L 173.068683 36.032453 C 173.698892 36.032453 174.198892 36.532453 174.198892 37.162661 L 174.198892 47.865787 C 174.198892 48.501204 174.7041 49.001204 175.344725 49.001204 L 186.724934 49.001204 C 187.360351 49.001204 187.860351 48.454329 187.860351 47.824121 L 187.860351 36.57412 C 187.860351 33.88662 185.902018 31.928286 183.214517 31.928286 L 182.813476 31.928286 C 182.167642 31.928286 181.667642 31.428286 181.667642 30.798078 C 181.667642 30.152244 182.167642 29.652244 182.813476 29.652244 L 183.214517 29.652244 C 185.902018 29.652244 187.860351 27.693911 187.860351 25.006411 L 187.860351 20.00641 C 187.860351 15.72516 184.724934 12.579327 180.448892 12.579327 L 152.584307 12.579327 C 151.943682 12.579327 151.443682 13.079327 151.443682 13.72516 L 151.443682 47.865787 C 151.443682 48.501204 151.943682 49.001204 152.584307 49.001204 Z M 166.245766 25.563702 C 165.599933 25.563702 165.099933 25.063702 165.099933 24.417869 C 165.099933 23.782452 165.599933 23.282452 166.245766 23.282452 L 173.068683 23.282452 C 173.698892 23.282452 174.198892 23.782452 174.198892 24.417869 C 174.198892 25.063702 173.698892 25.563702 173.068683 25.563702 Z M 191.27181 49.001204 L 202.652019 49.001204 C 203.287435 49.001204 203.787435 48.454329 203.787435 47.824121 L 203.787435 37.162661 C 203.787435 36.532453 204.287435 36.032453 204.933269 36.032453 L 211.756186 36.032453 C 212.391603 36.032453 212.891603 36.532453 212.891603 37.162661 L 212.891603 47.865787 C 212.891603 48.501204 213.391603 49.001204 214.032228 49.001204 L 225.412437 49.001204 C 226.047854 49.001204 226.547854 48.454329 226.547854 47.824121 L 226.547854 36.57412 C 226.547854 33.88662 224.58952 31.928286 221.90202 31.928286 L 221.500978 31.928286 C 220.860353 31.928286 220.360353 31.428286 220.360353 30.798078 C 220.360353 30.152244 220.860353 29.652244 221.500978 29.652244 L 221.90202 29.652244 C 224.58952 29.652244 226.547854 27.693911 226.547854 25.006411 L 226.547854 20.00641 C 226.547854 15.72516 223.412437 12.579327 219.136395 12.579327 L 191.27181 12.579327 C 190.631185 12.579327 190.131185 13.079327 190.131185 13.72516 L 190.131185 47.865787 C 190.131185 48.501204 190.631185 49.001204 191.27181 49.001204 Z M 204.933269 25.563702 C 204.287435 25.563702 203.787435 25.063702 203.787435 24.417869 C 203.787435 23.782452 204.287435 23.282452 204.933269 23.282452 L 211.756186 23.282452 C 212.391603 23.282452 212.891603 23.782452 212.891603 24.417869 C 212.891603 25.063702 212.391603 25.563702 211.756186 25.563702 Z M 238.021813 49.001204 L 249.355147 49.001204 C 249.990563 49.001204 250.490563 48.501204 250.490563 47.865787 L 250.490563 35.57412 C 250.490563 34.928286 250.990564 34.428286 251.620772 34.428286 L 257.365564 34.428286 C 257.959314 34.428286 258.500981 33.975161 258.500981 33.38662 L 258.500981 13.902243 C 258.500981 13.126202 258.047856 12.579327 257.313481 12.579327 L 245.985355 12.579327 C 245.34473 12.579327 244.84473 13.079327 244.84473 13.683493 L 244.84473 22.782452 C 244.84473 23.506411 244.297855 23.959536 243.667646 23.959536 C 243.021813 23.959536 242.474938 23.506411 242.474938 22.782452 L 242.474938 13.683493 C 242.474938 13.079327 241.974938 12.579327 241.34473 12.579327 L 230.006187 12.579327 C 229.271812 12.579327 228.818687 13.126202 228.818687 13.902243 L 228.818687 33.38662 C 228.818687 33.975161 229.375979 34.428286 229.96452 34.428286 L 235.698896 34.428286 C 236.329104 34.428286 236.829104 34.928286 236.829104 35.57412 L 236.829104 47.865787 C 236.829104 48.501204 237.375979 49.001204 238.021813 49.001204 Z M 238.021813 49.001204 " stroke="#231f20" stroke-width="9.16094" stroke-opacity="1" stroke-miterlimit="4"/><path stroke-linecap="butt" transform="matrix(0.75, 0, 0, 0.75, 32.108652, 166.374099)" fill="none" stroke-linejoin="miter" d="M 261.964523 49.001204 L 273.297857 49.001204 C 273.933273 49.001204 274.433273 48.501204 274.433273 47.865787 L 274.433273 27.605369 C 274.433273 26.975161 274.933273 26.464744 275.579107 26.464744 C 276.209315 26.464744 276.709315 26.975161 276.709315 27.605369 L 276.709315 47.954329 C 276.709315 48.542871 277.25619 49.001204 277.844732 49.001204 L 289.224941 49.001204 C 289.823899 49.001204 290.370774 48.542871 290.370774 47.954329 L 290.370774 27.605369 C 290.370774 26.975161 290.870774 26.464744 291.500983 26.464744 C 292.146816 26.464744 292.646816 26.975161 292.646816 27.605369 L 292.646816 47.865787 C 292.646816 48.501204 293.193691 49.001204 293.8239 49.001204 L 305.162442 49.001204 C 305.79265 49.001204 306.29265 48.501204 306.29265 47.865787 L 306.29265 13.72516 C 306.29265 13.079327 305.750984 12.579327 305.115567 12.579327 L 285.813482 12.579327 C 285.178066 12.579327 284.678066 13.126202 284.678066 13.772035 L 284.678066 20.094952 C 284.678066 20.730369 284.178066 21.230369 283.532232 21.230369 C 282.902024 21.230369 282.402024 20.730369 282.402024 20.094952 L 282.402024 13.72516 C 282.402024 13.079327 281.855149 12.579327 281.22494 12.579327 L 261.917648 12.579327 C 261.271814 12.579327 260.771814 13.079327 260.771814 13.72516 L 260.771814 47.865787 C 260.771814 48.501204 261.329106 49.001204 261.964523 49.001204 Z M 309.756192 49.001204 L 321.089526 49.001204 C 321.724943 49.001204 322.224943 48.501204 322.224943 47.865787 L 322.224943 41.485578 C 322.224943 40.85537 322.724943 40.35537 323.370777 40.35537 C 324.000985 40.35537 324.500985 40.897037 324.500985 41.532453 L 324.500985 47.865787 C 324.500985 48.501204 325.04786 49.001204 325.678068 49.001204 L 337.016611 49.001204 C 337.662444 49.001204 338.162444 48.501204 338.162444 47.865787 L 338.162444 21.870994 C 338.162444 16.495993 334.245777 12.579327 328.870777 12.579327 L 317.855151 12.579327 C 312.490568 12.579327 308.563484 16.495993 308.563484 21.870994 L 308.563484 47.865787 C 308.563484 48.501204 309.120776 49.001204 309.756192 49.001204 Z M 323.370777 29.428286 C 322.724943 29.428286 322.224943 28.928286 322.224943 28.282453 L 322.224943 24.652244 C 322.224943 24.006411 322.724943 23.506411 323.370777 23.506411 C 324.000985 23.506411 324.500985 24.006411 324.500985 24.652244 L 324.500985 28.282453 C 324.500985 28.928286 324.000985 29.428286 323.370777 29.428286 Z M 341.568694 49.001204 L 352.948904 49.001204 C 353.58432 49.001204 354.08432 48.454329 354.08432 47.824121 L 354.08432 37.162661 C 354.08432 36.532453 354.58432 36.032453 355.230154 36.032453 L 362.053071 36.032453 C 362.688488 36.032453 363.188488 36.532453 363.188488 37.162661 L 363.188488 47.865787 C 363.188488 48.501204 363.688488 49.001204 364.329113 49.001204 L 375.709322 49.001204 C 376.344738 49.001204 376.844738 48.454329 376.844738 47.824121 L 376.844738 36.57412 C 376.844738 33.88662 374.886405 31.928286 372.198905 31.928286 L 371.797863 31.928286 C 371.15203 31.928286 370.65203 31.428286 370.65203 30.798078 C 370.65203 30.152244 371.15203 29.652244 371.797863 29.652244 L 372.198905 29.652244 C 374.886405 29.652244 376.844738 27.693911 376.844738 25.006411 L 376.844738 20.00641 C 376.844738 15.72516 373.709322 12.579327 369.43328 12.579327 L 341.568694 12.579327 C 340.928069 12.579327 340.428069 13.079327 340.428069 13.72516 L 340.428069 47.865787 C 340.428069 48.501204 340.928069 49.001204 341.568694 49.001204 Z M 355.230154 25.563702 C 354.58432 25.563702 354.08432 25.063702 354.08432 24.417869 C 354.08432 23.782452 354.58432 23.282452 355.230154 23.282452 L 362.053071 23.282452 C 362.688488 23.282452 363.188488 23.782452 363.188488 24.417869 C 363.188488 25.063702 362.688488 25.563702 362.053071 25.563702 Z M 380.261405 49.001204 L 391.594739 49.001204 C 392.230156 49.001204 392.771823 48.501204 392.771823 47.865787 L 392.771823 38.485578 C 392.771823 37.839745 393.271823 37.339745 393.917656 37.339745 C 394.553073 37.339745 395.053073 37.839745 395.053073 38.485578 L 395.053073 47.865787 C 395.053073 48.501204 395.553073 49.001204 396.183281 49.001204 L 407.521824 49.001204 C 408.162449 49.001204 408.709324 48.501204 408.709324 47.865787 L 408.709324 43.308495 C 408.709324 42.719954 408.662449 42.397037 408.521824 41.897037 L 405.433282 31.516828 C 405.240574 30.886619 405.297865 30.563703 405.433282 30.063703 L 408.521824 19.683494 C 408.662449 19.183494 408.709324 18.772035 408.709324 18.272035 L 408.709324 13.72516 C 408.709324 13.079327 408.162449 12.579327 407.521824 12.579327 L 396.183281 12.579327 C 395.553073 12.579327 395.053073 13.079327 395.053073 13.72516 L 395.053073 23.094952 C 395.053073 23.740786 394.553073 24.240786 393.917656 24.240786 C 393.271823 24.240786 392.771823 23.740786 392.771823 23.094952 L 392.771823 13.72516 C 392.771823 13.079327 392.230156 12.579327 391.594739 12.579327 L 380.261405 12.579327 C 379.615572 12.579327 379.115572 13.079327 379.115572 13.72516 L 379.115572 47.865787 C 379.115572 48.501204 379.615572 49.001204 380.261405 49.001204 Z M 380.261405 49.001204 " stroke="#231f20" stroke-width="9.16094" stroke-opacity="1" stroke-miterlimit="4"/><g fill="#ffffff" fill-opacity="1"><g transform="translate(32.120371, 203.124097)"><g><path d="M 1.742188 0 L 10.242188 0 C 10.71875 0 11.09375 -0.375 11.09375 -0.851562 L 11.09375 -16.046875 C 11.09375 -16.523438 11.472656 -16.898438 11.949219 -16.898438 C 12.425781 -16.898438 12.800781 -16.523438 12.800781 -16.046875 L 12.800781 -0.785156 C 12.800781 -0.339844 13.210938 0 13.65625 0 L 22.191406 0 C 22.636719 0 23.042969 -0.339844 23.042969 -0.785156 L 23.042969 -16.046875 C 23.042969 -16.523438 23.421875 -16.898438 23.898438 -16.898438 C 24.375 -16.898438 24.75 -16.523438 24.75 -16.046875 L 24.75 -0.851562 C 24.75 -0.375 25.160156 0 25.640625 0 L 34.140625 0 C 34.617188 0 34.992188 -0.375 34.992188 -0.851562 L 34.992188 -26.457031 C 34.992188 -26.9375 34.582031 -27.3125 34.105469 -27.3125 L 19.628906 -27.3125 C 19.152344 -27.3125 18.777344 -26.902344 18.777344 -26.425781 L 18.777344 -21.679688 C 18.777344 -21.199219 18.402344 -20.824219 17.921875 -20.824219 C 17.445312 -20.824219 17.070312 -21.199219 17.070312 -21.679688 L 17.070312 -26.457031 C 17.070312 -26.9375 16.660156 -27.3125 16.183594 -27.3125 L 1.707031 -27.3125 C 1.230469 -27.3125 0.851562 -26.9375 0.851562 -26.457031 L 0.851562 -0.851562 C 0.851562 -0.375 1.261719 0 1.742188 0 Z M 1.742188 0 "/></g></g></g><g fill="#ffffff" fill-opacity="1"><g transform="translate(67.963859, 203.124097)"><g><path d="M 7.75 0 L 16.25 0 C 16.730469 0 17.105469 -0.375 17.105469 -0.851562 L 17.105469 -10.070312 C 17.105469 -10.550781 17.480469 -10.925781 17.957031 -10.925781 L 22.257812 -10.925781 C 22.703125 -10.925781 23.113281 -11.265625 23.113281 -11.710938 L 23.113281 -26.320312 C 23.113281 -26.902344 22.769531 -27.3125 22.226562 -27.3125 L 13.722656 -27.3125 C 13.246094 -27.3125 12.871094 -26.9375 12.871094 -26.492188 L 12.871094 -19.664062 C 12.871094 -19.117188 12.460938 -18.777344 11.984375 -18.777344 C 11.503906 -18.777344 11.09375 -19.117188 11.09375 -19.664062 L 11.09375 -26.492188 C 11.09375 -26.9375 10.71875 -27.3125 10.242188 -27.3125 L 1.742188 -27.3125 C 1.195312 -27.3125 0.851562 -26.902344 0.851562 -26.320312 L 0.851562 -11.710938 C 0.851562 -11.265625 1.261719 -10.925781 1.707031 -10.925781 L 6.007812 -10.925781 C 6.488281 -10.925781 6.863281 -10.550781 6.863281 -10.070312 L 6.863281 -0.851562 C 6.863281 -0.375 7.273438 0 7.75 0 Z M 7.75 0 "/></g></g></g><g fill="#ffffff" fill-opacity="1"><g transform="translate(91.927786, 203.124097)"><g><path d="M 7.816406 0 L 27.3125 0 C 27.789062 0 28.164062 -0.410156 28.164062 -0.886719 L 28.164062 -8.363281 C 28.164062 -8.84375 27.789062 -9.21875 27.3125 -9.21875 L 11.949219 -9.21875 C 11.472656 -9.21875 11.09375 -9.59375 11.09375 -10.070312 L 11.09375 -17.242188 C 11.09375 -17.71875 11.472656 -18.09375 11.949219 -18.09375 L 27.3125 -18.09375 C 27.789062 -18.09375 28.164062 -18.503906 28.164062 -18.980469 L 28.164062 -26.457031 C 28.164062 -26.9375 27.789062 -27.3125 27.3125 -27.3125 L 7.816406 -27.3125 C 3.789062 -27.3125 0.851562 -24.375 0.851562 -20.347656 L 0.851562 -6.964844 C 0.851562 -2.9375 3.789062 0 7.816406 0 Z M 7.816406 0 "/></g></g></g><g fill="#ffffff" fill-opacity="1"><g transform="translate(120.943935, 203.124097)"><g><path d="M 1.742188 0 L 10.242188 0 C 10.71875 0 11.09375 -0.375 11.09375 -0.851562 L 11.09375 -5.632812 C 11.09375 -6.109375 11.472656 -6.488281 11.949219 -6.488281 C 12.425781 -6.488281 12.800781 -6.078125 12.800781 -5.597656 L 12.800781 -0.851562 C 12.800781 -0.375 13.210938 0 13.691406 0 L 22.191406 0 C 22.667969 0 23.042969 -0.375 23.042969 -0.851562 L 23.042969 -20.347656 C 23.042969 -24.375 20.109375 -27.3125 16.078125 -27.3125 L 7.816406 -27.3125 C 3.789062 -27.3125 0.851562 -24.375 0.851562 -20.347656 L 0.851562 -0.851562 C 0.851562 -0.375 1.261719 0 1.742188 0 Z M 11.949219 -14.679688 C 11.472656 -14.679688 11.09375 -15.054688 11.09375 -15.535156 L 11.09375 -18.265625 C 11.09375 -18.742188 11.472656 -19.117188 11.949219 -19.117188 C 12.425781 -19.117188 12.800781 -18.742188 12.800781 -18.265625 L 12.800781 -15.535156 C 12.800781 -15.054688 12.425781 -14.679688 11.949219 -14.679688 Z M 11.949219 -14.679688 "/></g></g></g><g fill="#ffffff" fill-opacity="1"><g transform="translate(144.839586, 203.124097)"><g><path d="M 1.707031 0 L 10.242188 0 C 10.71875 0 11.09375 -0.410156 11.09375 -0.886719 L 11.09375 -8.875 C 11.09375 -9.355469 11.472656 -9.730469 11.949219 -9.730469 L 17.070312 -9.730469 C 17.546875 -9.730469 17.921875 -9.355469 17.921875 -8.875 L 17.921875 -0.851562 C 17.921875 -0.375 18.300781 0 18.777344 0 L 27.3125 0 C 27.789062 0 28.164062 -0.410156 28.164062 -0.886719 L 28.164062 -9.320312 C 28.164062 -11.335938 26.699219 -12.800781 24.683594 -12.800781 L 24.375 -12.800781 C 23.898438 -12.800781 23.523438 -13.179688 23.523438 -13.65625 C 23.523438 -14.132812 23.898438 -14.507812 24.375 -14.507812 L 24.683594 -14.507812 C 26.699219 -14.507812 28.164062 -15.976562 28.164062 -17.992188 L 28.164062 -21.746094 C 28.164062 -24.957031 25.808594 -27.3125 22.601562 -27.3125 L 1.707031 -27.3125 C 1.230469 -27.3125 0.851562 -26.9375 0.851562 -26.457031 L 0.851562 -0.851562 C 0.851562 -0.375 1.230469 0 1.707031 0 Z M 11.949219 -17.582031 C 11.472656 -17.582031 11.09375 -17.957031 11.09375 -18.4375 C 11.09375 -18.914062 11.472656 -19.289062 11.949219 -19.289062 L 17.070312 -19.289062 C 17.546875 -19.289062 17.921875 -18.914062 17.921875 -18.4375 C 17.921875 -17.957031 17.546875 -17.582031 17.070312 -17.582031 Z M 11.949219 -17.582031 "/></g></g></g><g fill="#ffffff" fill-opacity="1"><g transform="translate(173.855736, 203.124097)"><g><path d="M 1.707031 0 L 10.242188 0 C 10.71875 0 11.09375 -0.410156 11.09375 -0.886719 L 11.09375 -8.875 C 11.09375 -9.355469 11.472656 -9.730469 11.949219 -9.730469 L 17.070312 -9.730469 C 17.546875 -9.730469 17.921875 -9.355469 17.921875 -8.875 L 17.921875 -0.851562 C 17.921875 -0.375 18.300781 0 18.777344 0 L 27.3125 0 C 27.789062 0 28.164062 -0.410156 28.164062 -0.886719 L 28.164062 -9.320312 C 28.164062 -11.335938 26.699219 -12.800781 24.683594 -12.800781 L 24.375 -12.800781 C 23.898438 -12.800781 23.523438 -13.179688 23.523438 -13.65625 C 23.523438 -14.132812 23.898438 -14.507812 24.375 -14.507812 L 24.683594 -14.507812 C 26.699219 -14.507812 28.164062 -15.976562 28.164062 -17.992188 L 28.164062 -21.746094 C 28.164062 -24.957031 25.808594 -27.3125 22.601562 -27.3125 L 1.707031 -27.3125 C 1.230469 -27.3125 0.851562 -26.9375 0.851562 -26.457031 L 0.851562 -0.851562 C 0.851562 -0.375 1.230469 0 1.707031 0 Z M 11.949219 -17.582031 C 11.472656 -17.582031 11.09375 -17.957031 11.09375 -18.4375 C 11.09375 -18.914062 11.472656 -19.289062 11.949219 -19.289062 L 17.070312 -19.289062 C 17.546875 -19.289062 17.921875 -18.914062 17.921875 -18.4375 C 17.921875 -17.957031 17.546875 -17.582031 17.070312 -17.582031 Z M 11.949219 -17.582031 "/></g></g></g><g fill="#ffffff" fill-opacity="1"><g transform="translate(202.871886, 203.124097)"><g><path d="M 7.75 0 L 16.25 0 C 16.730469 0 17.105469 -0.375 17.105469 -0.851562 L 17.105469 -10.070312 C 17.105469 -10.550781 17.480469 -10.925781 17.957031 -10.925781 L 22.257812 -10.925781 C 22.703125 -10.925781 23.113281 -11.265625 23.113281 -11.710938 L 23.113281 -26.320312 C 23.113281 -26.902344 22.769531 -27.3125 22.226562 -27.3125 L 13.722656 -27.3125 C 13.246094 -27.3125 12.871094 -26.9375 12.871094 -26.492188 L 12.871094 -19.664062 C 12.871094 -19.117188 12.460938 -18.777344 11.984375 -18.777344 C 11.503906 -18.777344 11.09375 -19.117188 11.09375 -19.664062 L 11.09375 -26.492188 C 11.09375 -26.9375 10.71875 -27.3125 10.242188 -27.3125 L 1.742188 -27.3125 C 1.195312 -27.3125 0.851562 -26.902344 0.851562 -26.320312 L 0.851562 -11.710938 C 0.851562 -11.265625 1.261719 -10.925781 1.707031 -10.925781 L 6.007812 -10.925781 C 6.488281 -10.925781 6.863281 -10.550781 6.863281 -10.070312 L 6.863281 -0.851562 C 6.863281 -0.375 7.273438 0 7.75 0 Z M 7.75 0 "/></g></g></g><g fill="#ff8080" fill-opacity="1"><g transform="translate(226.839112, 203.124097)"><g><path d="M 1.742188 0 L 10.242188 0 C 10.71875 0 11.09375 -0.375 11.09375 -0.851562 L 11.09375 -16.046875 C 11.09375 -16.523438 11.472656 -16.898438 11.949219 -16.898438 C 12.425781 -16.898438 12.800781 -16.523438 12.800781 -16.046875 L 12.800781 -0.785156 C 12.800781 -0.339844 13.210938 0 13.65625 0 L 22.191406 0 C 22.636719 0 23.042969 -0.339844 23.042969 -0.785156 L 23.042969 -16.046875 C 23.042969 -16.523438 23.421875 -16.898438 23.898438 -16.898438 C 24.375 -16.898438 24.75 -16.523438 24.75 -16.046875 L 24.75 -0.851562 C 24.75 -0.375 25.160156 0 25.640625 0 L 34.140625 0 C 34.617188 0 34.992188 -0.375 34.992188 -0.851562 L 34.992188 -26.457031 C 34.992188 -26.9375 34.582031 -27.3125 34.105469 -27.3125 L 19.628906 -27.3125 C 19.152344 -27.3125 18.777344 -26.902344 18.777344 -26.425781 L 18.777344 -21.679688 C 18.777344 -21.199219 18.402344 -20.824219 17.921875 -20.824219 C 17.445312 -20.824219 17.070312 -21.199219 17.070312 -21.679688 L 17.070312 -26.457031 C 17.070312 -26.9375 16.660156 -27.3125 16.183594 -27.3125 L 1.707031 -27.3125 C 1.230469 -27.3125 0.851562 -26.9375 0.851562 -26.457031 L 0.851562 -0.851562 C 0.851562 -0.375 1.261719 0 1.742188 0 Z M 1.742188 0 "/></g></g></g><g fill="#ff8080" fill-opacity="1"><g transform="translate(262.6826, 203.124097)"><g><path d="M 1.742188 0 L 10.242188 0 C 10.71875 0 11.09375 -0.375 11.09375 -0.851562 L 11.09375 -5.632812 C 11.09375 -6.109375 11.472656 -6.488281 11.949219 -6.488281 C 12.425781 -6.488281 12.800781 -6.078125 12.800781 -5.597656 L 12.800781 -0.851562 C 12.800781 -0.375 13.210938 0 13.691406 0 L 22.191406 0 C 22.667969 0 23.042969 -0.375 23.042969 -0.851562 L 23.042969 -20.347656 C 23.042969 -24.375 20.109375 -27.3125 16.078125 -27.3125 L 7.816406 -27.3125 C 3.789062 -27.3125 0.851562 -24.375 0.851562 -20.347656 L 0.851562 -0.851562 C 0.851562 -0.375 1.261719 0 1.742188 0 Z M 11.949219 -14.679688 C 11.472656 -14.679688 11.09375 -15.054688 11.09375 -15.535156 L 11.09375 -18.265625 C 11.09375 -18.742188 11.472656 -19.117188 11.949219 -19.117188 C 12.425781 -19.117188 12.800781 -18.742188 12.800781 -18.265625 L 12.800781 -15.535156 C 12.800781 -15.054688 12.425781 -14.679688 11.949219 -14.679688 Z M 11.949219 -14.679688 "/></g></g></g><g fill="#ff8080" fill-opacity="1"><g transform="translate(286.578251, 203.124097)"><g><path d="M 1.707031 0 L 10.242188 0 C 10.71875 0 11.09375 -0.410156 11.09375 -0.886719 L 11.09375 -8.875 C 11.09375 -9.355469 11.472656 -9.730469 11.949219 -9.730469 L 17.070312 -9.730469 C 17.546875 -9.730469 17.921875 -9.355469 17.921875 -8.875 L 17.921875 -0.851562 C 17.921875 -0.375 18.300781 0 18.777344 0 L 27.3125 0 C 27.789062 0 28.164062 -0.410156 28.164062 -0.886719 L 28.164062 -9.320312 C 28.164062 -11.335938 26.699219 -12.800781 24.683594 -12.800781 L 24.375 -12.800781 C 23.898438 -12.800781 23.523438 -13.179688 23.523438 -13.65625 C 23.523438 -14.132812 23.898438 -14.507812 24.375 -14.507812 L 24.683594 -14.507812 C 26.699219 -14.507812 28.164062 -15.976562 28.164062 -17.992188 L 28.164062 -21.746094 C 28.164062 -24.957031 25.808594 -27.3125 22.601562 -27.3125 L 1.707031 -27.3125 C 1.230469 -27.3125 0.851562 -26.9375 0.851562 -26.457031 L 0.851562 -0.851562 C 0.851562 -0.375 1.230469 0 1.707031 0 Z M 11.949219 -17.582031 C 11.472656 -17.582031 11.09375 -17.957031 11.09375 -18.4375 C 11.09375 -18.914062 11.472656 -19.289062 11.949219 -19.289062 L 17.070312 -19.289062 C 17.546875 -19.289062 17.921875 -18.914062 17.921875 -18.4375 C 17.921875 -17.957031 17.546875 -17.582031 17.070312 -17.582031 Z M 11.949219 -17.582031 "/></g></g></g><g fill="#ff8080" fill-opacity="1"><g transform="translate(315.594401, 203.124097)"><g><path d="M 1.707031 0 L 10.207031 0 C 10.6875 0 11.09375 -0.375 11.09375 -0.851562 L 11.09375 -7.886719 C 11.09375 -8.363281 11.472656 -8.738281 11.949219 -8.738281 C 12.425781 -8.738281 12.800781 -8.363281 12.800781 -7.886719 L 12.800781 -0.851562 C 12.800781 -0.375 13.179688 0 13.65625 0 L 22.15625 0 C 22.636719 0 23.042969 -0.375 23.042969 -0.851562 L 23.042969 -4.265625 C 23.042969 -4.710938 23.011719 -4.949219 22.90625 -5.324219 L 20.585938 -13.109375 C 20.449219 -13.585938 20.484375 -13.828125 20.585938 -14.203125 L 22.90625 -21.984375 C 23.011719 -22.363281 23.042969 -22.667969 23.042969 -23.042969 L 23.042969 -26.457031 C 23.042969 -26.9375 22.636719 -27.3125 22.15625 -27.3125 L 13.65625 -27.3125 C 13.179688 -27.3125 12.800781 -26.9375 12.800781 -26.457031 L 12.800781 -19.425781 C 12.800781 -18.949219 12.425781 -18.570312 11.949219 -18.570312 C 11.472656 -18.570312 11.09375 -18.949219 11.09375 -19.425781 L 11.09375 -26.457031 C 11.09375 -26.9375 10.6875 -27.3125 10.207031 -27.3125 L 1.707031 -27.3125 C 1.230469 -27.3125 0.851562 -26.9375 0.851562 -26.457031 L 0.851562 -0.851562 C 0.851562 -0.375 1.230469 0 1.707031 0 Z M 1.707031 0 "/></g></g></g><g clip-path="url(#daeea68e39)"><path fill="#231f20" d="M 144.414062 190 C 135.796875 191.585938 134.511719 192.871094 132.925781 201.488281 C 131.339844 192.871094 130.054688 191.585938 121.4375 190 C 130.054688 188.410156 131.339844 187.125 132.925781 178.507812 C 134.511719 187.125 135.796875 188.410156 144.414062 190 Z M 144.414062 190 " fill-opacity="1" fill-rule="nonzero"/></g><g clip-path="url(#fe533a018b)"><path fill="#231f20" d="M 286.019531 190 C 277.402344 191.585938 276.113281 192.871094 274.527344 201.488281 C 272.941406 192.871094 271.65625 191.585938 263.039062 190 C 271.65625 188.410156 272.941406 187.125 274.527344 178.507812 C 276.113281 187.125 277.402344 188.410156 286.019531 190 Z M 286.019531 190 " fill-opacity="1" fill-rule="nonzero"/></g><g clip-path="url(#3fc181e785)"><path fill="#ff8080" d="M 89.699219 211.160156 C 91.265625 210.390625 90.828125 210.3125 92.0625 211.535156 C 93.785156 211.285156 93.394531 211.074219 94.191406 212.621094 C 95.910156 212.914062 95.601562 212.59375 95.882812 214.3125 C 97.425781 215.121094 97.230469 214.722656 96.964844 216.441406 C 98.183594 217.6875 98.125 217.25 97.339844 218.800781 C 98.113281 220.367188 98.191406 219.929688 96.964844 221.164062 C 97.21875 222.886719 97.425781 222.496094 95.882812 223.292969 C 95.585938 225.011719 95.90625 224.703125 94.191406 224.984375 C 93.378906 226.527344 93.78125 226.332031 92.0625 226.066406 C 90.8125 227.285156 91.253906 227.226562 89.699219 226.441406 C 88.136719 227.214844 88.574219 227.292969 87.339844 226.066406 C 85.613281 226.320312 86.003906 226.527344 85.210938 224.984375 C 83.492188 224.6875 83.796875 225.007812 83.519531 223.292969 C 81.976562 222.480469 82.167969 222.882812 82.433594 221.164062 C 81.214844 219.914062 81.277344 220.355469 82.058594 218.800781 C 81.289062 217.238281 81.210938 217.675781 82.433594 216.441406 C 82.183594 214.714844 81.972656 215.105469 83.519531 214.3125 C 83.8125 212.59375 83.492188 212.898438 85.210938 212.621094 C 86.019531 211.078125 85.621094 211.269531 87.339844 211.535156 C 88.589844 210.320312 88.148438 210.378906 89.699219 211.160156 " fill-opacity="1" fill-rule="evenodd"/></g><path fill="#231f20" d="M 93.910156 215.265625 L 94.457031 215.808594 C 94.535156 215.886719 94.535156 216.015625 94.457031 216.09375 L 88.195312 222.355469 L 88.191406 222.355469 L 88.179688 222.367188 L 88.175781 222.367188 L 88.167969 222.375 L 88.160156 222.375 L 88.15625 222.378906 L 88.152344 222.378906 L 88.148438 222.382812 L 88.144531 222.382812 L 88.140625 222.386719 L 88.132812 222.386719 L 88.128906 222.390625 L 88.121094 222.390625 L 88.117188 222.394531 L 88.105469 222.394531 L 88.101562 222.398438 L 88.039062 222.398438 L 88.03125 222.394531 L 88.019531 222.394531 L 88.011719 222.390625 L 88.003906 222.390625 L 88 222.386719 L 87.996094 222.386719 L 87.992188 222.382812 L 87.984375 222.382812 L 87.980469 222.378906 L 87.976562 222.378906 L 87.972656 222.375 L 87.96875 222.375 C 87.964844 222.371094 87.960938 222.371094 87.960938 222.367188 C 87.945312 222.359375 87.933594 222.351562 87.921875 222.339844 L 87.378906 221.792969 L 87.375 221.792969 L 84.945312 219.359375 C 84.867188 219.28125 84.867188 219.152344 84.945312 219.074219 L 85.488281 218.53125 C 85.570312 218.449219 85.695312 218.449219 85.773438 218.53125 L 88.066406 220.820312 L 93.621094 215.265625 C 93.703125 215.1875 93.832031 215.1875 93.910156 215.265625 " fill-opacity="1" fill-rule="evenodd"/><g fill="#231f20" fill-opacity="1"><g transform="translate(103.061995, 221.554489)"><g><path d="M 5.828125 0.171875 C 3.921875 0.171875 2.519531 -0.222656 1.625 -1.015625 C 0.832031 -1.703125 0.4375 -2.644531 0.4375 -3.84375 C 0.4375 -5.039062 0.832031 -5.988281 1.625 -6.6875 C 2.519531 -7.46875 3.921875 -7.859375 5.828125 -7.859375 C 6.910156 -7.859375 7.8125 -7.738281 8.53125 -7.5 C 9.25 -7.257812 9.8125 -6.925781 10.21875 -6.5 C 10.632812 -6.082031 10.914062 -5.597656 11.0625 -5.046875 L 7.609375 -5.046875 C 7.242188 -5.546875 6.648438 -5.796875 5.828125 -5.796875 C 5.046875 -5.796875 4.472656 -5.570312 4.109375 -5.125 C 3.804688 -4.757812 3.65625 -4.332031 3.65625 -3.84375 C 3.65625 -3.351562 3.804688 -2.929688 4.109375 -2.578125 C 4.472656 -2.128906 5.046875 -1.90625 5.828125 -1.90625 C 6.453125 -1.90625 6.921875 -1.957031 7.234375 -2.0625 C 7.554688 -2.175781 7.789062 -2.320312 7.9375 -2.5 L 6.6875 -2.5 L 6.6875 -3.84375 L 11.0625 -3.84375 L 11.0625 0 L 9.734375 0 L 9.453125 -0.734375 C 8.597656 -0.128906 7.390625 0.171875 5.828125 0.171875 Z M 5.828125 0.171875 "/></g></g><g transform="translate(114.783829, 221.554489)"><g><path d="M 11.375 0 L 8.328125 0 C 8.179688 -0.195312 8.082031 -0.441406 8.03125 -0.734375 C 7.976562 -0.972656 7.898438 -1.203125 7.796875 -1.421875 C 7.703125 -1.648438 7.53125 -1.835938 7.28125 -1.984375 C 7.039062 -2.128906 6.675781 -2.207031 6.1875 -2.21875 L 4.09375 -2.21875 L 4.09375 0 L 0.859375 0 L 0.859375 -7.703125 L 6.125 -7.703125 C 7.375 -7.703125 8.382812 -7.609375 9.15625 -7.421875 C 9.925781 -7.234375 10.488281 -6.9375 10.84375 -6.53125 C 11.195312 -6.132812 11.375 -5.613281 11.375 -4.96875 C 11.375 -4.425781 11.25 -3.96875 11 -3.59375 C 10.757812 -3.226562 10.375 -2.9375 9.84375 -2.71875 C 10.363281 -2.507812 10.695312 -2.253906 10.84375 -1.953125 C 11 -1.660156 11.09375 -1.335938 11.125 -0.984375 C 11.164062 -0.671875 11.25 -0.34375 11.375 0 Z M 4.09375 -4.125 L 5.9375 -4.125 C 6.457031 -4.125 6.863281 -4.144531 7.15625 -4.1875 C 7.457031 -4.238281 7.675781 -4.304688 7.8125 -4.390625 C 7.957031 -4.472656 8.046875 -4.5625 8.078125 -4.65625 C 8.117188 -4.757812 8.140625 -4.863281 8.140625 -4.96875 C 8.140625 -5.070312 8.117188 -5.171875 8.078125 -5.265625 C 8.046875 -5.367188 7.957031 -5.457031 7.8125 -5.53125 C 7.675781 -5.613281 7.457031 -5.675781 7.15625 -5.71875 C 6.863281 -5.769531 6.457031 -5.796875 5.9375 -5.796875 L 4.09375 -5.796875 Z M 4.09375 -4.125 "/></g></g><g transform="translate(126.602404, 221.554489)"><g><path d="M 12.9375 0 L 9.671875 0 L 8.9375 -1.265625 L 4.078125 -1.265625 L 3.359375 0 L 0.078125 0 L 5.015625 -7.703125 L 8.015625 -7.703125 Z M 7.859375 -3.171875 L 6.515625 -5.5 L 5.171875 -3.171875 Z M 7.859375 -3.171875 "/></g></g><g transform="translate(139.635621, 221.554489)"><g><path d="M 6.015625 0 L 0.859375 0 L 0.859375 -7.703125 L 6.015625 -7.703125 C 8.117188 -7.703125 9.632812 -7.410156 10.5625 -6.828125 C 11.3125 -6.347656 11.738281 -5.695312 11.84375 -4.875 C 11.882812 -4.519531 11.90625 -4.175781 11.90625 -3.84375 C 11.90625 -3.519531 11.882812 -3.179688 11.84375 -2.828125 C 11.800781 -2.472656 11.679688 -2.128906 11.484375 -1.796875 C 11.285156 -1.460938 10.976562 -1.160156 10.5625 -0.890625 C 10.144531 -0.617188 9.566406 -0.398438 8.828125 -0.234375 C 8.097656 -0.078125 7.160156 0 6.015625 0 Z M 5.703125 -1.90625 C 7.347656 -1.90625 8.28125 -2.320312 8.5 -3.15625 C 8.550781 -3.382812 8.578125 -3.613281 8.578125 -3.84375 C 8.578125 -4.082031 8.546875 -4.316406 8.484375 -4.546875 C 8.429688 -4.785156 8.304688 -5 8.109375 -5.1875 C 7.921875 -5.375 7.632812 -5.519531 7.25 -5.625 C 6.875 -5.738281 6.359375 -5.796875 5.703125 -5.796875 L 4.09375 -5.796875 L 4.09375 -1.90625 Z M 5.703125 -1.90625 "/></g></g><g transform="translate(151.980899, 221.554489)"><g><path d="M 10.140625 0 L 0.859375 0 L 0.859375 -7.703125 L 9.71875 -7.703125 L 9.71875 -5.796875 L 4.09375 -5.796875 L 4.09375 -4.59375 L 8.84375 -4.59375 L 8.84375 -3.109375 L 4.09375 -3.109375 L 4.09375 -1.90625 L 10.140625 -1.90625 Z M 10.140625 0 "/></g></g><g transform="translate(162.55796, 221.554489)"><g/></g><g transform="translate(165.288217, 221.554489)"><g><path d="M 4.09375 0 L 0.859375 0 L 0.859375 -7.703125 L 6.125 -7.703125 C 7.375 -7.703125 8.382812 -7.609375 9.15625 -7.421875 C 9.925781 -7.234375 10.488281 -6.9375 10.84375 -6.53125 C 11.195312 -6.132812 11.375 -5.613281 11.375 -4.96875 C 11.375 -4.320312 11.195312 -3.796875 10.84375 -3.390625 C 10.488281 -2.984375 9.925781 -2.6875 9.15625 -2.5 C 8.382812 -2.3125 7.375 -2.21875 6.125 -2.21875 L 4.09375 -2.21875 Z M 4.09375 -4.125 L 5.9375 -4.125 C 6.457031 -4.125 6.863281 -4.144531 7.15625 -4.1875 C 7.457031 -4.226562 7.675781 -4.285156 7.8125 -4.359375 C 7.957031 -4.441406 8.046875 -4.53125 8.078125 -4.625 C 8.117188 -4.726562 8.140625 -4.84375 8.140625 -4.96875 C 8.140625 -5.082031 8.117188 -5.191406 8.078125 -5.296875 C 8.046875 -5.398438 7.957031 -5.488281 7.8125 -5.5625 C 7.675781 -5.632812 7.457031 -5.691406 7.15625 -5.734375 C 6.863281 -5.773438 6.457031 -5.796875 5.9375 -5.796875 L 4.09375 -5.796875 Z M 4.09375 -4.125 "/></g></g><g transform="translate(177.106792, 221.554489)"><g><path d="M 11.375 0 L 8.328125 0 C 8.179688 -0.195312 8.082031 -0.441406 8.03125 -0.734375 C 7.976562 -0.972656 7.898438 -1.203125 7.796875 -1.421875 C 7.703125 -1.648438 7.53125 -1.835938 7.28125 -1.984375 C 7.039062 -2.128906 6.675781 -2.207031 6.1875 -2.21875 L 4.09375 -2.21875 L 4.09375 0 L 0.859375 0 L 0.859375 -7.703125 L 6.125 -7.703125 C 7.375 -7.703125 8.382812 -7.609375 9.15625 -7.421875 C 9.925781 -7.234375 10.488281 -6.9375 10.84375 -6.53125 C 11.195312 -6.132812 11.375 -5.613281 11.375 -4.96875 C 11.375 -4.425781 11.25 -3.96875 11 -3.59375 C 10.757812 -3.226562 10.375 -2.9375 9.84375 -2.71875 C 10.363281 -2.507812 10.695312 -2.253906 10.84375 -1.953125 C 11 -1.660156 11.09375 -1.335938 11.125 -0.984375 C 11.164062 -0.671875 11.25 -0.34375 11.375 0 Z M 4.09375 -4.125 L 5.9375 -4.125 C 6.457031 -4.125 6.863281 -4.144531 7.15625 -4.1875 C 7.457031 -4.238281 7.675781 -4.304688 7.8125 -4.390625 C 7.957031 -4.472656 8.046875 -4.5625 8.078125 -4.65625 C 8.117188 -4.757812 8.140625 -4.863281 8.140625 -4.96875 C 8.140625 -5.070312 8.117188 -5.171875 8.078125 -5.265625 C 8.046875 -5.367188 7.957031 -5.457031 7.8125 -5.53125 C 7.675781 -5.613281 7.457031 -5.675781 7.15625 -5.71875 C 6.863281 -5.769531 6.457031 -5.796875 5.9375 -5.796875 L 4.09375 -5.796875 Z M 4.09375 -4.125 "/></g></g><g transform="translate(188.925367, 221.554489)"><g><path d="M 10.140625 0 L 0.859375 0 L 0.859375 -7.703125 L 9.71875 -7.703125 L 9.71875 -5.796875 L 4.09375 -5.796875 L 4.09375 -4.59375 L 8.84375 -4.59375 L 8.84375 -3.109375 L 4.09375 -3.109375 L 4.09375 -1.90625 L 10.140625 -1.90625 Z M 10.140625 0 "/></g></g><g transform="translate(199.502428, 221.554489)"><g><path d="M 6.015625 0 L 0.859375 0 L 0.859375 -7.703125 L 6.015625 -7.703125 C 8.117188 -7.703125 9.632812 -7.410156 10.5625 -6.828125 C 11.3125 -6.347656 11.738281 -5.695312 11.84375 -4.875 C 11.882812 -4.519531 11.90625 -4.175781 11.90625 -3.84375 C 11.90625 -3.519531 11.882812 -3.179688 11.84375 -2.828125 C 11.800781 -2.472656 11.679688 -2.128906 11.484375 -1.796875 C 11.285156 -1.460938 10.976562 -1.160156 10.5625 -0.890625 C 10.144531 -0.617188 9.566406 -0.398438 8.828125 -0.234375 C 8.097656 -0.078125 7.160156 0 6.015625 0 Z M 5.703125 -1.90625 C 7.347656 -1.90625 8.28125 -2.320312 8.5 -3.15625 C 8.550781 -3.382812 8.578125 -3.613281 8.578125 -3.84375 C 8.578125 -4.082031 8.546875 -4.316406 8.484375 -4.546875 C 8.429688 -4.785156 8.304688 -5 8.109375 -5.1875 C 7.921875 -5.375 7.632812 -5.519531 7.25 -5.625 C 6.875 -5.738281 6.359375 -5.796875 5.703125 -5.796875 L 4.09375 -5.796875 L 4.09375 -1.90625 Z M 5.703125 -1.90625 "/></g></g><g transform="translate(211.847706, 221.554489)"><g><path d="M 4.09375 0 L 0.859375 0 L 0.859375 -7.703125 L 4.09375 -7.703125 Z M 4.09375 0 "/></g></g><g transform="translate(216.803016, 221.554489)"><g><path d="M 5.828125 0.171875 C 3.921875 0.171875 2.519531 -0.222656 1.625 -1.015625 C 0.832031 -1.703125 0.4375 -2.644531 0.4375 -3.84375 C 0.4375 -5.039062 0.832031 -5.988281 1.625 -6.6875 C 2.519531 -7.46875 3.921875 -7.859375 5.828125 -7.859375 C 6.941406 -7.859375 7.863281 -7.726562 8.59375 -7.46875 C 9.320312 -7.21875 9.890625 -6.867188 10.296875 -6.421875 C 10.703125 -5.984375 10.972656 -5.476562 11.109375 -4.90625 L 7.703125 -4.90625 C 7.367188 -5.5 6.742188 -5.796875 5.828125 -5.796875 C 5.046875 -5.796875 4.472656 -5.570312 4.109375 -5.125 C 3.804688 -4.757812 3.65625 -4.332031 3.65625 -3.84375 C 3.65625 -3.351562 3.804688 -2.929688 4.109375 -2.578125 C 4.472656 -2.117188 5.046875 -1.890625 5.828125 -1.890625 C 6.742188 -1.890625 7.367188 -2.191406 7.703125 -2.796875 L 11.109375 -2.796875 C 10.972656 -2.222656 10.703125 -1.710938 10.296875 -1.265625 C 9.890625 -0.828125 9.320312 -0.476562 8.59375 -0.21875 C 7.863281 0.0390625 6.941406 0.171875 5.828125 0.171875 Z M 5.828125 0.171875 "/></g></g><g transform="translate(228.34749, 221.554489)"><g><path d="M 6.578125 0 L 3.34375 0 L 3.34375 -5.796875 L 0.328125 -5.796875 L 0.328125 -7.703125 L 9.59375 -7.703125 L 9.59375 -5.796875 L 6.578125 -5.796875 Z M 6.578125 0 "/></g></g><g transform="translate(238.268859, 221.554489)"><g><path d="M 4.09375 0 L 0.859375 0 L 0.859375 -7.703125 L 4.09375 -7.703125 Z M 4.09375 0 "/></g></g><g transform="translate(243.224168, 221.554489)"><g><path d="M 5.828125 0.171875 C 3.921875 0.171875 2.519531 -0.222656 1.625 -1.015625 C 0.832031 -1.703125 0.4375 -2.644531 0.4375 -3.84375 C 0.4375 -5.039062 0.832031 -5.988281 1.625 -6.6875 C 2.519531 -7.46875 3.921875 -7.859375 5.828125 -7.859375 C 7.734375 -7.859375 9.132812 -7.46875 10.03125 -6.6875 C 10.820312 -5.988281 11.21875 -5.039062 11.21875 -3.84375 C 11.21875 -2.644531 10.820312 -1.703125 10.03125 -1.015625 C 9.132812 -0.222656 7.734375 0.171875 5.828125 0.171875 Z M 5.828125 -1.90625 C 6.609375 -1.90625 7.179688 -2.128906 7.546875 -2.578125 C 7.835938 -2.929688 7.984375 -3.351562 7.984375 -3.84375 C 7.984375 -4.34375 7.835938 -4.769531 7.546875 -5.125 C 7.179688 -5.570312 6.609375 -5.796875 5.828125 -5.796875 C 5.046875 -5.796875 4.472656 -5.570312 4.109375 -5.125 C 3.804688 -4.769531 3.65625 -4.34375 3.65625 -3.84375 C 3.65625 -3.351562 3.804688 -2.929688 4.109375 -2.578125 C 4.472656 -2.128906 5.046875 -1.90625 5.828125 -1.90625 Z M 5.828125 -1.90625 "/></g></g><g transform="translate(254.886882, 221.554489)"><g><path d="M 12.296875 0 L 8.453125 0 L 4.09375 -5.21875 L 4.09375 0 L 0.859375 0 L 0.859375 -7.703125 L 4.703125 -7.703125 L 9.0625 -2.515625 L 9.0625 -7.703125 L 12.296875 -7.703125 Z M 12.296875 0 "/></g></g></g></svg>